<?xml version="1.0" encoding="utf-8"?>
<!-- Generator: Adobe Illustrator 20.1.0, SVG Export Plug-In . SVG Version: 6.00 Build 0)  -->
<svg version="1.1" id="Layer_1" xmlns="http://www.w3.org/2000/svg" xmlns:xlink="http://www.w3.org/1999/xlink" x="0px" y="0px"
	 viewBox="0 0 481.5 73" style="enable-background:new 0 0 481.5 73;" xml:space="preserve">
<style type="text/css">
	.st0{fill:#F2F0ED;}
</style>
<path class="st0" d="M61,67.1h6.4V33.6H61v-1.1h13.6v34.6H81v1.2H61V67.1z M66.5,13c0-1.2,0.4-2.3,1.3-3.1c0.9-0.9,1.9-1.3,3.1-1.3
	S73.2,9,74,9.9c0.9,0.9,1.3,1.9,1.3,3.1s-0.4,2.3-1.3,3.1c-0.9,0.9-1.9,1.3-3.1,1.3s-2.3-0.4-3.1-1.3C66.9,15.3,66.5,14.2,66.5,13z"
	/>
<path class="st0" d="M89,67.1h6.4V33.6H89v-1.1h13.4v8.4h0.2c0.2-0.8,0.6-1.8,1.1-2.8c0.5-1.1,1.2-2.1,2.1-3c0.9-1,2-1.8,3.2-2.5
	c1.3-0.7,2.8-1,4.6-1c1.3,0,2.4,0.2,3.3,0.6c0.9,0.4,1.7,0.9,2.3,1.6c0.6,0.6,1.1,1.4,1.3,2.2c0.3,0.8,0.4,1.7,0.4,2.5
	c0,1.8-0.4,3.1-1.3,3.7c-0.8,0.6-1.8,0.9-2.9,0.9c-2.5,0-3.7-0.8-3.7-2.3c0-0.5,0.1-0.9,0.2-1.2s0.2-0.6,0.4-0.9
	c0.1-0.3,0.3-0.7,0.4-1c0.1-0.4,0.2-0.9,0.2-1.7c0-1.8-1-2.7-2.9-2.7c-0.9,0-1.8,0.3-2.8,1s-1.9,1.6-2.8,2.9
	c-0.9,1.3-1.6,2.8-2.2,4.6s-0.9,3.9-0.9,6.2v19.1h7.3v1.2H89V67.1z"/>
<path class="st0" d="M131.3,55.6h0.9c0.4,1.3,0.9,2.7,1.5,4c0.6,1.4,1.4,2.6,2.5,3.8c1,1.1,2.3,2.1,3.8,2.8c1.5,0.7,3.3,1.1,5.4,1.1
	c1.8,0,3.4-0.5,4.8-1.6c1.4-1.1,2.1-2.9,2.1-5.3c0-2.1-0.5-3.6-1.6-4.5s-2.4-1.5-3.8-2l-6.5-2.3c-0.8-0.3-1.7-0.6-2.7-1
	s-1.9-1-2.7-1.8s-1.5-1.7-2-2.9s-0.8-2.7-0.8-4.5c0-1.6,0.3-3,0.9-4.3c0.6-1.3,1.4-2.5,2.5-3.5s2.3-1.8,3.8-2.3
	c1.5-0.6,3.1-0.8,4.8-0.8c1.2,0,2.2,0.1,3,0.3s1.4,0.4,2,0.6c0.6,0.2,1.1,0.4,1.5,0.6c0.4,0.2,1,0.3,1.6,0.3s1.1-0.2,1.3-0.7h0.9
	v9.5h-0.9c-0.4-1.2-0.8-2.4-1.3-3.5s-1.1-2.2-1.8-3c-0.7-0.9-1.6-1.6-2.6-2.1s-2.2-0.8-3.6-0.8c-2.7,0-4.7,0.6-6.2,1.8
	s-2.2,2.8-2.2,4.8c0,1.8,0.6,3.1,1.9,4c1.3,0.9,3.1,1.8,5.6,2.5l6.1,2c2.6,0.9,4.8,2.1,6.4,3.7c1.7,1.6,2.5,3.6,2.5,6.2
	c0,1.5-0.3,3-0.9,4.4c-0.6,1.4-1.4,2.7-2.6,3.8c-1.1,1.1-2.5,2-4.2,2.6c-1.6,0.7-3.5,1-5.6,1c-1.2,0-2.4-0.1-3.4-0.4s-2-0.5-2.8-0.8
	c-0.9-0.3-1.7-0.5-2.4-0.8s-1.4-0.4-2-0.4s-1.1,0.1-1.3,0.4s-0.5,0.5-0.7,0.8h-0.9V55.6H131.3z"/>
<path class="st0" d="M166.9,31.5h6.4V20.7c0.4,0.2,0.9,0.3,1.3,0.4c0.4,0.1,1.1,0.2,2,0.2c0.8,0,1.6-0.1,2.2-0.3
	c0.6-0.2,1.2-0.5,1.8-1v11.5h11.9v1.2h-11.9V60c0,1.6,0.2,2.8,0.5,3.8s0.7,1.7,1.2,2.3c0.5,0.5,1,0.9,1.6,1c0.6,0.2,1.2,0.3,1.7,0.3
	c1.9,0,3.5-0.7,4.7-2.1s2-3,2.3-4.9l1.2,0.4c-0.2,0.7-0.4,1.5-0.8,2.4c-0.3,0.9-0.8,1.7-1.5,2.5s-1.6,1.5-2.7,2
	c-1.1,0.5-2.5,0.8-4.2,0.8c-4.2,0-7.1-0.8-8.7-2.4c-1.6-1.6-2.5-3.9-2.5-6.8V32.6H167v-1.1H166.9z"/>
<path class="st0" d="M203.7,49.3h0.9c0.6,3,1.4,5.5,2.4,7.6s2,3.8,3.2,5.1s2.4,2.4,3.7,3.1s2.6,1.3,3.9,1.6c1.3,0.3,2.6,0.5,3.8,0.6
	s2.3,0.1,3.4,0.1c2.9,0,5.4-0.4,7.3-1.3c1.9-0.9,3.4-2,4.5-3.4s1.9-2.8,2.3-4.4c0.4-1.6,0.7-3,0.7-4.4c0-1.9-0.4-3.6-1.1-5
	c-0.7-1.4-1.6-2.6-2.8-3.5c-1.1-1-2.3-1.8-3.6-2.4c-1.3-0.6-2.5-1.1-3.7-1.4l-9.6-2.9c-4.5-1.4-7.9-3.2-10.2-5.5s-3.5-5.3-3.5-9.2
	c0-2.5,0.4-4.8,1.3-7c0.9-2.1,2.1-4,3.8-5.6c1.6-1.6,3.5-2.8,5.8-3.7s4.7-1.3,7.4-1.3c1.9,0,3.6,0.2,4.9,0.5
	c1.3,0.3,2.4,0.7,3.4,1.1c0.9,0.4,1.8,0.8,2.5,1.1c0.8,0.3,1.5,0.5,2.3,0.5c0.7,0,1.2-0.1,1.5-0.3s0.6-0.7,1-1.5h1.2v15.1h-1
	c-0.3-2-0.9-3.9-1.7-5.8s-1.9-3.5-3.1-4.9c-1.3-1.4-2.8-2.6-4.6-3.4c-1.8-0.9-3.9-1.3-6.3-1.3c-1.3,0-2.8,0.2-4.4,0.5
	c-1.6,0.4-3.1,1-4.5,1.9s-2.5,2.1-3.5,3.5c-0.9,1.4-1.4,3.3-1.4,5.5c0,1.8,0.4,3.3,1.1,4.5c0.7,1.3,1.7,2.3,2.8,3.2
	c1.1,0.9,2.4,1.6,3.8,2.2c1.4,0.6,2.9,1.1,4.3,1.5l10.1,3.2c1.1,0.3,2.4,0.8,4,1.3c1.6,0.6,3.2,1.4,4.7,2.5s2.8,2.6,3.9,4.4
	c1.1,1.8,1.6,4.2,1.6,7c0,2.6-0.5,5.1-1.5,7.5s-2.4,4.5-4.2,6.3s-4.1,3.3-6.7,4.3c-2.6,1.1-5.6,1.6-8.8,1.6c-1.2,0-2.2,0-3.1,0
	c-0.9,0-1.7-0.1-2.5-0.2s-1.6-0.2-2.3-0.4c-0.8-0.1-1.6-0.3-2.6-0.6c-1.1-0.3-2.3-0.7-3.6-1.2c-1.3-0.4-2.4-0.7-3.3-0.7
	c-0.8,0-1.4,0.2-1.7,0.5s-0.6,0.8-0.8,1.3h-1.3L203.7,49.3L203.7,49.3z"/>
<path class="st0" d="M266,46.6c0,0.6,0,1.1,0,1.7c0,0.6,0,1.3,0,2.2c0,1.8,0.1,3.8,0.3,5.8c0.2,2,0.7,3.8,1.5,5.4s1.9,2.9,3.3,4
	c1.5,1.1,3.4,1.6,5.9,1.6c2.4,0,4.5-0.4,6.1-1.1s2.8-1.6,3.8-2.6c0.9-1,1.6-2.1,2-3.1c0.4-1.1,0.8-1.9,1-2.6l1.3,0.3
	c-0.2,0.6-0.5,1.5-1,2.6c-0.5,1.1-1.2,2.3-2.3,3.4c-1,1.1-2.4,2.1-4.2,3c-1.8,0.9-4,1.3-6.8,1.3s-5.4-0.4-7.7-1.3
	c-2.4-0.9-4.4-2.2-6.1-3.8c-1.7-1.7-3.1-3.7-4-6s-1.4-4.9-1.4-7.7c0-2.4,0.5-4.8,1.5-7.1s2.3-4.4,4-6.1c1.7-1.8,3.7-3.2,6-4.3
	s4.7-1.6,7.3-1.6c1.6,0,3.2,0.3,5,0.8c1.8,0.6,3.4,1.5,5,2.7c1.5,1.3,2.8,2.9,3.8,5s1.5,4.6,1.5,7.7H266V46.6z M283.2,45.4
	c0.1-0.8,0.2-1.5,0.2-2.2s0-1.4,0-2.1c0-1.9-0.2-3.4-0.5-4.7c-0.4-1.2-0.9-2.2-1.5-2.9s-1.4-1.2-2.3-1.5s-1.9-0.5-3-0.5
	c-1.9,0-3.5,0.4-4.7,1.1c-1.2,0.8-2.2,1.8-2.9,3s-1.3,2.8-1.6,4.4s-0.6,3.4-0.7,5.3h17V45.4z"/>
<path class="st0" d="M301.1,67.1h6.4V33.6h-6.4v-1.1h13.4v8.4h0.2c0.2-0.8,0.6-1.8,1.1-2.8c0.5-1.1,1.2-2.1,2.1-3
	c0.9-1,2-1.8,3.2-2.5c1.3-0.7,2.8-1,4.6-1c1.3,0,2.4,0.2,3.3,0.6c0.9,0.4,1.7,0.9,2.3,1.6c0.6,0.6,1.1,1.4,1.3,2.2
	c0.3,0.8,0.4,1.7,0.4,2.5c0,1.8-0.4,3.1-1.3,3.7c-0.8,0.6-1.8,0.9-2.9,0.9c-2.5,0-3.7-0.8-3.7-2.3c0-0.5,0.1-0.9,0.2-1.2
	s0.2-0.6,0.4-0.9c0.1-0.3,0.3-0.7,0.4-1c0.1-0.4,0.2-0.9,0.2-1.7c0-1.8-1-2.7-2.9-2.7c-0.9,0-1.8,0.3-2.8,1s-1.9,1.6-2.8,2.9
	c-0.9,1.3-1.6,2.8-2.2,4.6s-0.9,3.9-0.9,6.2v19.1h7.3v1.2h-20.9L301.1,67.1L301.1,67.1z"/>
<path class="st0" d="M339.8,31.5H360v1.2h-6.8L364,58.9l11.2-26.2h-6.8v-1.2H381v1.2h-4.5l-15.8,37.4l-15.2-37.4h-5.7V31.5z"/>
<path class="st0" d="M393.5,47.6c0,0.6,0,1.1,0,1.7c0,0.6,0,1.3,0,2.2c0,1.8,0.1,3.8,0.3,5.8c0.2,2,0.7,3.8,1.5,5.4s1.9,2.9,3.3,4
	c1.5,1.1,3.4,1.6,5.9,1.6c2.4,0,4.5-0.4,6.1-1.1s2.8-1.6,3.8-2.6c0.9-1,1.6-2.1,2-3.1c0.4-1.1,0.8-1.9,1-2.6l1.3,0.3
	c-0.2,0.6-0.5,1.5-1,2.6c-0.5,1.1-1.2,2.3-2.3,3.4c-1,1.1-2.4,2.1-4.2,3c-1.8,0.9-4,1.3-6.8,1.3s-5.4-0.4-7.7-1.3
	c-2.4-0.9-4.4-2.2-6.1-3.8c-1.7-1.7-3.1-3.7-4-6c-0.9-2.3-1.4-4.9-1.4-7.7c0-2.4,0.5-4.8,1.5-7.1s2.3-4.4,4-6.1
	c1.7-1.8,3.7-3.2,6-4.3s4.7-1.6,7.3-1.6c1.6,0,3.2,0.3,5,0.8c1.8,0.6,3.4,1.5,5,2.7c1.5,1.3,2.8,2.9,3.8,5s1.5,4.6,1.5,7.7h-25.8
	V47.6z M410.7,46.4c0.1-0.8,0.2-1.5,0.2-2.2s0-1.4,0-2.1c0-1.9-0.2-3.4-0.5-4.7c-0.4-1.2-0.9-2.2-1.5-2.9s-1.4-1.2-2.3-1.5
	s-1.9-0.5-3-0.5c-1.9,0-3.5,0.4-4.7,1.1c-1.2,0.8-2.2,1.8-2.9,3s-1.3,2.8-1.6,4.4c-0.4,1.7-0.6,3.4-0.7,5.3h17V46.4z"/>
<path class="st0" d="M453.4,8.1H467v59h6.4v1.2H460V61h-0.2c-0.2,0.7-0.6,1.5-1,2.4s-1.1,1.9-2,2.8s-1.9,1.7-3.3,2.3
	c-1.3,0.6-2.9,1-4.8,1c-2.4,0-4.8-0.5-7-1.6s-4.1-2.5-5.8-4.3c-1.7-1.8-3-3.8-4-6.1s-1.5-4.7-1.5-7.3c0-2.5,0.5-4.9,1.4-7.2
	s2.2-4.3,3.8-6c1.6-1.7,3.5-3.1,5.6-4.1s4.4-1.5,6.8-1.5c3.1,0,5.5,0.8,7.4,2.3s3.2,3.3,4,5.5h0.2V9.3h-6.4V8.1H453.4z M438.9,49.2
	c0,2.9,0.1,5.5,0.3,7.9c0.2,2.4,0.6,4.4,1.3,6.1c0.7,1.7,1.7,2.9,3,3.8s3.1,1.3,5.4,1.3s4.2-0.5,5.6-1.5s2.5-2.3,3.3-3.9
	s1.3-3.4,1.6-5.3c0.3-1.9,0.4-3.8,0.4-5.7c0-2.2,0-4-0.1-5.6s-0.2-3-0.5-4.2c-0.2-1.2-0.5-2.3-0.9-3.2s-0.9-1.7-1.4-2.5
	c-0.8-1.1-1.9-2-3.3-2.8c-1.3-0.7-3-1.1-5.1-1.1c-1.9,0-3.5,0.4-4.8,1.2s-2.2,1.9-2.9,3.3c-0.7,1.4-1.2,3.2-1.5,5.2
	C439,44.3,438.9,46.6,438.9,49.2z"/>
<g>
	<path class="st0" d="M9.6,67.2h8.9V12.4l-0.1-2.3l36.9,1.1V25h-0.9c-0.7-2.1-1.4-3.9-2.2-5.5s-1.8-2.9-2.9-4
		c-1.1-1.1-2.5-1.9-4-2.4s-3.4-0.8-5.6-0.8H26.5v25.9h5.2c1.8,0,3.3-0.2,4.5-0.5s2.3-0.9,3.2-1.8c0.9-0.9,1.6-2.1,2.2-3.6
		c0.6-1.5,1.2-3.5,1.8-5.9h0.9v25.1h-0.9c-0.4-1.5-0.8-3-1.2-4.5c-0.4-1.4-1-2.7-1.7-3.8s-1.7-2-2.9-2.7s-2.8-1-4.7-1h-6.5v27.7h8.9
		v1.1H9.6V67.2z"/>
	<path class="st0" d="M17.8,7.7c4-1.2,7.4-2.5,8.6-3.2v8l-8-2.2C18.3,9,17.9,8,17.2,8.2"/>
	<polyline class="st0" points="26.5,5.1 10,10.2 10.2,10.5 26.5,5.8 	"/>
	<rect x="9.4" y="7" transform="matrix(0.9572 -0.2895 0.2895 0.9572 -1.4145 5.5499)" class="st0" width="17.3" height="1.1"/>
	<polygon class="st0" points="24.8,4.9 26.5,4.5 26.5,7.5 	"/>
</g>
</svg>
